<svg
xmlns="http://www.w3.org/2000/svg"
xmlns:xlink="http://www.w3.org/1999/xlink"
width="48"
height="48"
viewBox="0 0 48 48">
  <defs>
    <symbol id="Icon-travel">
        
  <title class="" style="">Icon</title>
  <g class="" style="">
    <path d="M13.867,34a1,1,0,0,1-.373-0.072L8.854,32.066a1,1,0,0,1-.462-0.377L3.165,23.772a1,1,0,0,1,.576-1.517l2.9-.776a1,1,0,0,1,.66.05l5.544,2.429,5.885-1.577-6.363-7.709a1,1,0,0,1,.513-1.6l3.863-1.035a1,1,0,0,1,.747.093l12.795,7.157,5.4-1.447a11.915,11.915,0,0,1,3.05-.45c2.629,0,4.406,1.232,5.005,3.467a4.548,4.548,0,0,1-2.022,5.138,11.186,11.186,0,0,1-3.446,1.5l-24.147,6.47A0.99,0.99,0,0,1,13.867,34ZM9.889,30.327l4.041,1.621,23.826-6.384a9.278,9.278,0,0,0,2.816-1.21,2.522,2.522,0,0,0,1.237-2.982c-0.229-.852-0.8-1.985-3.074-1.985a10.01,10.01,0,0,0-2.532.381l-5.8,1.553a1,1,0,0,1-.747-0.093L16.866,14.071,14.9,14.6l6.362,7.708a1,1,0,0,1-.513,1.6l-7.727,2.071a1,1,0,0,1-.66-0.05L6.817,23.5,5.6,23.828Z"  class="" style=""/>
    <rect x="19" y="40" width="25" height="2"  class="" style=""/>
  </g>

    </symbol>
  </defs>
    <view id="default" viewBox="0 0 48 48"></view>
    <use data-variant="default" xlink:href="#Icon-travel" x="0" y="0" fill="#004346" />
    <view id="primary" viewBox="0 48 48 48"></view>
    <use data-variant="primary" xlink:href="#Icon-travel" x="0" y="48" fill="#FFCD05" />
    <view id="secondary" viewBox="0 96 48 48"></view>
    <use data-variant="secondary" xlink:href="#Icon-travel" x="0" y="96" fill="#478081" />
    <view id="dark" viewBox="0 144 48 48"></view>
    <use data-variant="dark" xlink:href="#Icon-travel" x="0" y="144" fill="#004346" />
    <view id="light" viewBox="0 192 48 48"></view>
    <use data-variant="light" xlink:href="#Icon-travel" x="0" y="192" fill="#FFFFFF" />
    <view id="correct" viewBox="0 240 48 48"></view>
    <use data-variant="correct" xlink:href="#Icon-travel" x="0" y="240" fill="#00928A" />
    <view id="error" viewBox="0 288 48 48"></view>
    <use data-variant="error" xlink:href="#Icon-travel" x="0" y="288" fill="#BD1903" />
    <view id="text" viewBox="0 336 48 48"></view>
    <use data-variant="text" xlink:href="#Icon-travel" x="0" y="336" fill="#000000" />
    <view id="neutral" viewBox="0 384 48 48"></view>
    <use data-variant="neutral" xlink:href="#Icon-travel" x="0" y="384" fill="#F5F3F1" />
    <view id="highlight" viewBox="0 432 48 48"></view>
    <use data-variant="highlight" xlink:href="#Icon-travel" x="0" y="432" fill="#FF6400" />
    <view id="border" viewBox="0 480 48 48"></view>
    <use data-variant="border" xlink:href="#Icon-travel" x="0" y="480" fill="#cdcbc3" />
    <view id="disabled" viewBox="0 528 48 48"></view>
    <use data-variant="disabled" xlink:href="#Icon-travel" x="0" y="528" fill="#737373" />
</svg>
